<svg width="95" height="13" viewBox="0 0 95 13" fill="none" xmlns="http://www.w3.org/2000/svg">
<mask id="path-1-outside-1_29_344" maskUnits="userSpaceOnUse" x="-1" y="-1" width="97" height="15" fill="black">
<rect fill="white" x="-1" y="-1" width="97" height="15"/>
<path d="M4.08807 0.363636L6.47443 8.56818H6.56534L8.9517 0.363636H12.5199L8.67898 12H4.3608L0.519886 0.363636H4.08807ZM18.0497 0.363636V12H14.8906V0.363636H18.0497ZM20.4787 2.90909V0.363636H30.5923V2.90909H27.0923V12H23.9787V2.90909H20.4787ZM34.5852 12H31.1761L35.017 0.363636H39.3352L43.1761 12H39.767L37.2216 3.56818H37.1307L34.5852 12ZM33.9489 7.40909H40.358V9.77273H33.9489V7.40909ZM51.3665 4C51.3362 3.62121 51.1941 3.32576 50.9403 3.11364C50.6903 2.90151 50.3097 2.79545 49.7983 2.79545C49.4725 2.79545 49.2055 2.83523 48.9972 2.91477C48.7926 2.99053 48.6411 3.0947 48.5426 3.22727C48.4441 3.35985 48.393 3.51136 48.3892 3.68182C48.3816 3.82197 48.4063 3.94886 48.4631 4.0625C48.5237 4.17235 48.6184 4.27273 48.7472 4.36364C48.8759 4.45076 49.0407 4.5303 49.2415 4.60227C49.4422 4.67424 49.6809 4.73864 49.9574 4.79545L50.9119 5C51.5559 5.13636 52.107 5.31629 52.5653 5.53977C53.0237 5.76326 53.3987 6.02652 53.6903 6.32955C53.982 6.62879 54.196 6.96591 54.3324 7.34091C54.4725 7.71591 54.5445 8.125 54.5483 8.56818C54.5445 9.33333 54.3532 9.98106 53.9744 10.5114C53.5956 11.0417 53.054 11.4451 52.3494 11.7216C51.6487 11.9981 50.8059 12.1364 49.821 12.1364C48.8097 12.1364 47.9271 11.9867 47.1733 11.6875C46.4233 11.3883 45.84 10.928 45.4233 10.3068C45.0104 9.68182 44.8021 8.88258 44.7983 7.90909H47.7983C47.8172 8.26515 47.9063 8.56439 48.0653 8.80682C48.2244 9.04924 48.4479 9.23295 48.7358 9.35795C49.0275 9.48295 49.3741 9.54545 49.7756 9.54545C50.1127 9.54545 50.3949 9.50379 50.6222 9.42045C50.8494 9.33712 51.0218 9.22159 51.1392 9.07386C51.2566 8.92614 51.3172 8.75758 51.321 8.56818C51.3172 8.39015 51.2585 8.23485 51.1449 8.10227C51.035 7.96591 50.8532 7.8447 50.5994 7.73864C50.3456 7.62879 50.0028 7.52652 49.571 7.43182L48.4119 7.18182C47.3816 6.95833 46.5691 6.58523 45.9744 6.0625C45.3835 5.53598 45.09 4.81818 45.0938 3.90909C45.09 3.17045 45.2869 2.52462 45.6847 1.97159C46.0862 1.41477 46.6411 0.98106 47.3494 0.670454C48.0616 0.359848 48.8778 0.204545 49.7983 0.204545C50.7377 0.204545 51.5502 0.361742 52.2358 0.676136C52.9214 0.99053 53.4498 1.43371 53.821 2.00568C54.196 2.57386 54.3854 3.23864 54.3892 4H51.3665ZM56.5227 0.363636H60.0455L62.3182 5.09091H62.4091L64.6818 0.363636H68.2045L63.9318 8.34091V12H60.7955V8.34091L56.5227 0.363636ZM80.5526 0.363636V12H77.9162L73.7116 5.88636H73.6435V12H70.4844V0.363636H73.1662L77.3026 6.45455H77.3935V0.363636H80.5526ZM94.1605 4.72727H90.956C90.9332 4.46212 90.8726 4.22159 90.7741 4.00568C90.6795 3.78977 90.5469 3.60417 90.3764 3.44886C90.2098 3.28977 90.0071 3.16856 89.7685 3.08523C89.5298 2.99811 89.259 2.95455 88.956 2.95455C88.4257 2.95455 87.9768 3.08333 87.6094 3.34091C87.2457 3.59848 86.9692 3.9678 86.7798 4.44886C86.5942 4.92992 86.5014 5.50758 86.5014 6.18182C86.5014 6.89394 86.5961 7.49053 86.7855 7.97159C86.9787 8.44886 87.2571 8.80871 87.6207 9.05114C87.9844 9.28977 88.4219 9.40909 88.9332 9.40909C89.2249 9.40909 89.4863 9.37311 89.7173 9.30114C89.9484 9.22538 90.1491 9.11742 90.3196 8.97727C90.4901 8.83712 90.6283 8.66856 90.7344 8.47159C90.8442 8.27083 90.9181 8.04545 90.956 7.79545L94.1605 7.81818C94.1226 8.31061 93.9844 8.8125 93.7457 9.32386C93.5071 9.83144 93.1681 10.3011 92.7287 10.733C92.2931 11.161 91.7533 11.5057 91.1094 11.767C90.4654 12.0284 89.7173 12.1591 88.8651 12.1591C87.7969 12.1591 86.8385 11.9299 85.9901 11.4716C85.1454 11.0133 84.4768 10.339 83.9844 9.44886C83.4957 8.55871 83.2514 7.4697 83.2514 6.18182C83.2514 4.88636 83.5014 3.79545 84.0014 2.90909C84.5014 2.01894 85.1757 1.34659 86.0241 0.892045C86.8726 0.433712 87.8196 0.204545 88.8651 0.204545C89.5999 0.204545 90.276 0.304924 90.8935 0.505681C91.5109 0.706439 92.0526 1 92.5185 1.38636C92.9844 1.76894 93.3594 2.24053 93.6435 2.80114C93.9276 3.36174 94.0999 4.00379 94.1605 4.72727Z"/>
</mask>
<path d="M4.08807 0.363636L5.04828 0.0843511L4.83865 -0.636364H4.08807V0.363636ZM6.47443 8.56818L5.51422 8.84747L5.72385 9.56818H6.47443V8.56818ZM6.56534 8.56818V9.56818H7.31592L7.52555 8.84747L6.56534 8.56818ZM8.9517 0.363636V-0.636364H8.20112L7.9915 0.0843511L8.9517 0.363636ZM12.5199 0.363636L13.4695 0.67708L13.903 -0.636364H12.5199V0.363636ZM8.67898 12V13H9.40197L9.62858 12.3134L8.67898 12ZM4.3608 12L3.41119 12.3134L3.63781 13H4.3608V12ZM0.519886 0.363636V-0.636364H-0.863259L-0.42972 0.67708L0.519886 0.363636ZM3.12786 0.642921L5.51422 8.84747L7.43464 8.2889L5.04828 0.0843511L3.12786 0.642921ZM6.47443 9.56818H6.56534V7.56818H6.47443V9.56818ZM7.52555 8.84747L9.91191 0.642921L7.9915 0.0843511L5.60513 8.2889L7.52555 8.84747ZM8.9517 1.36364H12.5199V-0.636364H8.9517V1.36364ZM11.5703 0.0501916L7.72937 11.6866L9.62858 12.3134L13.4695 0.67708L11.5703 0.0501916ZM8.67898 11H4.3608V13H8.67898V11ZM5.3104 11.6866L1.46949 0.0501916L-0.42972 0.67708L3.41119 12.3134L5.3104 11.6866ZM0.519886 1.36364H4.08807V-0.636364H0.519886V1.36364ZM18.0497 0.363636H19.0497V-0.636364H18.0497V0.363636ZM18.0497 12V13H19.0497V12H18.0497ZM14.8906 12H13.8906V13H14.8906V12ZM14.8906 0.363636V-0.636364H13.8906V0.363636H14.8906ZM17.0497 0.363636V12H19.0497V0.363636H17.0497ZM18.0497 11H14.8906V13H18.0497V11ZM15.8906 12V0.363636H13.8906V12H15.8906ZM14.8906 1.36364H18.0497V-0.636364H14.8906V1.36364ZM20.4787 2.90909H19.4787V3.90909H20.4787V2.90909ZM20.4787 0.363636V-0.636364H19.4787V0.363636H20.4787ZM30.5923 0.363636H31.5923V-0.636364H30.5923V0.363636ZM30.5923 2.90909V3.90909H31.5923V2.90909H30.5923ZM27.0923 2.90909V1.90909H26.0923V2.90909H27.0923ZM27.0923 12V13H28.0923V12H27.0923ZM23.9787 12H22.9787V13H23.9787V12ZM23.9787 2.90909H24.9787V1.90909H23.9787V2.90909ZM21.4787 2.90909V0.363636H19.4787V2.90909H21.4787ZM20.4787 1.36364H30.5923V-0.636364H20.4787V1.36364ZM29.5923 0.363636V2.90909H31.5923V0.363636H29.5923ZM30.5923 1.90909H27.0923V3.90909H30.5923V1.90909ZM26.0923 2.90909V12H28.0923V2.90909H26.0923ZM27.0923 11H23.9787V13H27.0923V11ZM24.9787 12V2.90909H22.9787V12H24.9787ZM23.9787 1.90909H20.4787V3.90909H23.9787V1.90909ZM34.5852 12V13H35.3279L35.5426 12.289L34.5852 12ZM31.1761 12L30.2265 11.6866L29.793 13H31.1761V12ZM35.017 0.363636V-0.636364H34.2941L34.0674 0.0501916L35.017 0.363636ZM39.3352 0.363636L40.2848 0.0501916L40.0582 -0.636364H39.3352V0.363636ZM43.1761 12V13H44.5593L44.1257 11.6866L43.1761 12ZM39.767 12L38.8097 12.289L39.0244 13H39.767V12ZM37.2216 3.56818L38.1789 3.27918L37.9643 2.56818H37.2216V3.56818ZM37.1307 3.56818V2.56818H36.388L36.1734 3.27918L37.1307 3.56818ZM33.9489 7.40909V6.40909H32.9489V7.40909H33.9489ZM40.358 7.40909H41.358V6.40909H40.358V7.40909ZM40.358 9.77273V10.7727H41.358V9.77273H40.358ZM33.9489 9.77273H32.9489V10.7727H33.9489V9.77273ZM34.5852 11H31.1761V13H34.5852V11ZM32.1257 12.3134L35.9667 0.67708L34.0674 0.0501916L30.2265 11.6866L32.1257 12.3134ZM35.017 1.36364H39.3352V-0.636364H35.017V1.36364ZM38.3856 0.67708L42.2265 12.3134L44.1257 11.6866L40.2848 0.0501916L38.3856 0.67708ZM43.1761 11H39.767V13H43.1761V11ZM40.7244 11.711L38.1789 3.27918L36.2643 3.85719L38.8097 12.289L40.7244 11.711ZM37.2216 2.56818H37.1307V4.56818H37.2216V2.56818ZM36.1734 3.27918L33.6279 11.711L35.5426 12.289L38.088 3.85719L36.1734 3.27918ZM33.9489 8.40909H40.358V6.40909H33.9489V8.40909ZM39.358 7.40909V9.77273H41.358V7.40909H39.358ZM40.358 8.77273H33.9489V10.7727H40.358V8.77273ZM34.9489 9.77273V7.40909H32.9489V9.77273H34.9489ZM51.3665 4L50.3697 4.07975L50.4433 5H51.3665V4ZM50.9403 3.11364L50.2933 3.87617L50.299 3.88092L50.9403 3.11364ZM48.9972 2.91477L49.3445 3.85257L49.3539 3.84899L48.9972 2.91477ZM48.5426 3.22727L47.7399 2.63095L47.7399 2.63095L48.5426 3.22727ZM48.3892 3.68182L49.3877 3.73579L49.3886 3.71992L49.389 3.70404L48.3892 3.68182ZM48.4631 4.0625L47.5686 4.50971L47.5777 4.52784L47.5875 4.54558L48.4631 4.0625ZM48.7472 4.36364L48.1705 5.1806L48.1786 5.18634L48.1868 5.19192L48.7472 4.36364ZM49.9574 4.79545L50.1669 3.81762L50.1587 3.81592L49.9574 4.79545ZM50.9119 5L50.7024 5.97781L50.7048 5.9783L50.9119 5ZM52.5653 5.53977L52.1271 6.43861L52.5653 5.53977ZM53.6903 6.32955L52.9698 7.02303L52.9742 7.02753L53.6903 6.32955ZM54.3324 7.34091L53.3926 7.68267L53.3957 7.691L54.3324 7.34091ZM54.5483 8.56818L55.5484 8.57313L55.5483 8.55964L54.5483 8.56818ZM53.9744 10.5114L54.7882 11.0926L53.9744 10.5114ZM52.3494 11.7216L51.9841 10.7907L51.9824 10.7914L52.3494 11.7216ZM47.1733 11.6875L46.8027 12.6163L46.8043 12.6169L47.1733 11.6875ZM45.4233 10.3068L44.5889 10.858L44.5928 10.8639L45.4233 10.3068ZM44.7983 7.90909V6.90909H43.7944L43.7983 7.91298L44.7983 7.90909ZM47.7983 7.90909L48.7969 7.85597L48.7465 6.90909H47.7983V7.90909ZM48.0653 8.80682L47.2293 9.35547L48.0653 8.80682ZM48.7358 9.35795L48.3375 10.2752L48.3419 10.2771L48.7358 9.35795ZM50.6222 9.42045L50.9664 10.3593L50.6222 9.42045ZM51.1392 9.07386L51.922 9.69611V9.69611L51.1392 9.07386ZM51.321 8.56818L52.3208 8.58818L52.3212 8.56754L52.3208 8.54691L51.321 8.56818ZM51.1449 8.10227L50.3661 8.7296L50.3757 8.74148L50.3856 8.75306L51.1449 8.10227ZM50.5994 7.73864L50.2022 8.65643L50.2138 8.66131L50.5994 7.73864ZM49.571 7.43182L49.7852 6.45502L49.7819 6.4543L49.571 7.43182ZM48.4119 7.18182L48.2 8.15909L48.2011 8.15934L48.4119 7.18182ZM45.9744 6.0625L45.3092 6.80913L45.3142 6.81359L45.9744 6.0625ZM45.0938 3.90909L46.0938 3.91326L46.0937 3.90396L45.0938 3.90909ZM45.6847 1.97159L44.8735 1.3867L44.8728 1.38773L45.6847 1.97159ZM47.3494 0.670454L46.9496 -0.246152L46.9478 -0.245366L47.3494 0.670454ZM52.2358 0.676136L51.819 1.58512H51.819L52.2358 0.676136ZM53.821 2.00568L52.9822 2.5501L52.9864 2.55652L53.821 2.00568ZM54.3892 4V5H55.3942L55.3892 3.99502L54.3892 4ZM52.3633 3.92025C52.315 3.3172 52.0726 2.75666 51.5816 2.34635L50.299 3.88092C50.3157 3.89485 50.3573 3.92522 50.3697 4.07975L52.3633 3.92025ZM51.5873 2.35113C51.0794 1.92019 50.4206 1.79545 49.7983 1.79545V3.79545C50.1987 3.79545 50.3013 3.88284 50.2934 3.87614L51.5873 2.35113ZM49.7983 1.79545C49.4018 1.79545 49.0023 1.84239 48.6405 1.98055L49.3539 3.84899C49.4087 3.82806 49.5433 3.79545 49.7983 3.79545V1.79545ZM48.6498 1.97702C48.3208 2.0989 47.9855 2.30024 47.7399 2.63095L49.3454 3.8236C49.334 3.83889 49.3231 3.8507 49.314 3.85926C49.3051 3.86774 49.2987 3.87233 49.2966 3.87376C49.2931 3.87621 49.3058 3.86686 49.3445 3.85252L48.6498 1.97702ZM47.7399 2.63095C47.5136 2.93551 47.3977 3.28914 47.3895 3.6596L49.389 3.70404C49.3888 3.71336 49.3868 3.73375 49.3779 3.76012C49.3689 3.78678 49.3565 3.80863 49.3454 3.8236L47.7399 2.63095ZM47.3907 3.62784C47.3747 3.92267 47.4263 4.22503 47.5686 4.50971L49.3575 3.61529C49.3704 3.6411 49.379 3.66749 49.3837 3.69162C49.3883 3.71522 49.388 3.73096 49.3877 3.73579L47.3907 3.62784ZM47.5875 4.54558C47.7375 4.81742 47.9489 5.02423 48.1705 5.1806L49.3238 3.54667C49.2878 3.52123 49.3099 3.52728 49.3386 3.57942L47.5875 4.54558ZM48.1868 5.19192C48.4051 5.33959 48.6515 5.45307 48.904 5.54361L49.5789 3.66093C49.43 3.60754 49.3468 3.56193 49.3075 3.53535L48.1868 5.19192ZM48.904 5.54361C49.1608 5.63566 49.4472 5.71151 49.7561 5.77499L50.1587 3.81592C49.9146 3.76576 49.7237 3.71283 49.5789 3.66093L48.904 5.54361ZM49.7479 5.77326L50.7024 5.9778L51.1215 4.0222L50.1669 3.81765L49.7479 5.77326ZM50.7048 5.9783C51.2906 6.10235 51.7599 6.25958 52.1271 6.43861L53.0036 4.64093C52.4541 4.37299 51.8212 4.17037 51.1191 4.0217L50.7048 5.9783ZM52.1271 6.43861C52.5017 6.62129 52.7747 6.82026 52.9699 7.02301L54.4108 5.63608C54.0227 5.23278 53.5456 4.90522 53.0036 4.64093L52.1271 6.43861ZM52.9742 7.02753C53.1717 7.23013 53.307 7.4472 53.3926 7.68265L55.2722 6.99917C55.0851 6.48461 54.7923 6.02745 54.4065 5.63156L52.9742 7.02753ZM53.3957 7.691C53.4908 7.94563 53.5454 8.23777 53.5483 8.57673L55.5483 8.55964C55.5436 8.01223 55.4542 7.48618 55.2691 6.99082L53.3957 7.691ZM53.5483 8.56323C53.5454 9.15866 53.3995 9.59585 53.1607 9.93013L54.7882 11.0926C55.307 10.3663 55.5437 9.508 55.5483 8.57313L53.5483 8.56323ZM53.1607 9.93013C52.9116 10.2788 52.5382 10.5732 51.9841 10.7907L52.7148 12.6525C53.5697 12.3169 54.2797 11.8045 54.7882 11.0926L53.1607 9.93013ZM51.9824 10.7914C51.4283 11.01 50.7169 11.1364 49.821 11.1364V13.1364C50.8949 13.1364 51.869 12.9862 52.7165 12.6518L51.9824 10.7914ZM49.821 11.1364C48.9059 11.1364 48.1536 11.0007 47.5423 10.7581L46.8043 12.6169C47.7006 12.9727 48.7134 13.1364 49.821 13.1364V11.1364ZM47.5439 10.7587C46.9655 10.5279 46.5491 10.1901 46.2538 9.74978L44.5928 10.8639C45.1308 11.666 45.8811 12.2486 46.8027 12.6163L47.5439 10.7587ZM46.2577 9.75562C45.9799 9.33521 45.8015 8.74159 45.7983 7.9052L43.7983 7.91298C43.8026 9.02357 44.0409 10.0284 44.5889 10.858L46.2577 9.75562ZM44.7983 8.90909H47.7983V6.90909H44.7983V8.90909ZM46.7997 7.96221C46.8259 8.45458 46.9532 8.93469 47.2293 9.35547L48.9014 8.25816C48.8593 8.19409 48.8086 8.07572 48.7969 7.85597L46.7997 7.96221ZM47.2293 9.35547C47.5041 9.77426 47.8863 10.0793 48.3375 10.2752L49.1341 8.44069C49.0095 8.38662 48.9447 8.32423 48.9014 8.25816L47.2293 9.35547ZM48.3419 10.2771C48.7863 10.4676 49.2733 10.5455 49.7756 10.5455V8.54545C49.4749 8.54545 49.2686 8.49833 49.1297 8.43881L48.3419 10.2771ZM49.7756 10.5455C50.1875 10.5455 50.5949 10.4956 50.9664 10.3593L50.2779 8.48158C50.1949 8.51201 50.0379 8.54545 49.7756 8.54545V10.5455ZM50.9664 10.3593C51.3182 10.2304 51.6622 10.023 51.922 9.69611L50.3564 8.45162C50.3814 8.42015 50.3807 8.44389 50.2779 8.48158L50.9664 10.3593ZM51.922 9.69611C52.1764 9.37612 52.3127 8.99577 52.3208 8.58818L50.3212 8.54819C50.3214 8.54056 50.3232 8.52199 50.3317 8.4983C50.3402 8.47457 50.3509 8.45853 50.3564 8.45162L51.922 9.69611ZM52.3208 8.54691C52.3122 8.14252 52.1716 7.7635 51.9041 7.45148L50.3856 8.75306C50.3709 8.73586 50.3525 8.7082 50.3388 8.6718C50.3251 8.63566 50.3216 8.60581 50.3213 8.58945L52.3208 8.54691ZM51.9236 7.47494C51.6662 7.15539 51.3131 6.95308 50.985 6.81597L50.2138 8.66131C50.296 8.69565 50.3455 8.72382 50.3714 8.74114C50.3977 8.75867 50.3886 8.75747 50.3661 8.7296L51.9236 7.47494ZM50.9967 6.82091C50.6597 6.67507 50.2473 6.55637 49.7852 6.45503L49.3568 8.40861C49.7583 8.49666 50.0316 8.58251 50.2022 8.65636L50.9967 6.82091ZM49.7819 6.4543L48.6228 6.2043L48.2011 8.15934L49.3602 8.40934L49.7819 6.4543ZM48.6239 6.20454C47.7067 6.00559 47.0662 5.69072 46.6346 5.31141L45.3142 6.81359C46.0721 7.47973 47.0566 7.91108 48.2 8.15909L48.6239 6.20454ZM46.6397 5.31588C46.2957 5.00937 46.091 4.58285 46.0937 3.91326L44.0938 3.90492C44.089 5.05351 44.4714 6.0626 45.3092 6.80912L46.6397 5.31588ZM46.0937 3.90396C46.0909 3.35779 46.2327 2.92229 46.4965 2.55546L44.8728 1.38773C44.3412 2.12695 44.089 2.98312 44.0938 3.91422L46.0937 3.90396ZM46.4958 2.55648C46.78 2.16225 47.1851 1.83442 47.751 1.58627L46.9478 -0.245366C46.0971 0.127699 45.3923 0.667297 44.8735 1.38671L46.4958 2.55648ZM47.7492 1.58706C48.3142 1.34066 48.9904 1.20455 49.7983 1.20455V-0.795455C48.7653 -0.795455 47.809 -0.62096 46.9496 -0.24615L47.7492 1.58706ZM49.7983 1.20455C50.6282 1.20455 51.2921 1.34353 51.819 1.58512L52.6526 -0.232849C51.8083 -0.620046 50.8472 -0.795455 49.7983 -0.795455V1.20455ZM51.819 1.58512C52.3511 1.82914 52.725 2.15381 52.9822 2.55008L54.6598 1.46128C54.1746 0.713612 53.4917 0.151915 52.6526 -0.23285L51.819 1.58512ZM52.9864 2.55652C53.2421 2.9439 53.3863 3.41399 53.3892 4.00498L55.3892 3.99502C55.3846 3.06328 55.15 2.20383 54.6556 1.45484L52.9864 2.55652ZM54.3892 3H51.3665V5H54.3892V3ZM56.5227 0.363636V-0.636364H54.8527L55.6412 0.835788L56.5227 0.363636ZM60.0455 0.363636L60.9467 -0.0696584L60.6743 -0.636364H60.0455V0.363636ZM62.3182 5.09091L61.4169 5.5242L61.6894 6.09091H62.3182V5.09091ZM62.4091 5.09091V6.09091H63.0379L63.3103 5.5242L62.4091 5.09091ZM64.6818 0.363636V-0.636364H64.053L63.7806 -0.0696584L64.6818 0.363636ZM68.2045 0.363636L69.0861 0.835788L69.8746 -0.636364H68.2045V0.363636ZM63.9318 8.34091L63.0503 7.86876L62.9318 8.08997V8.34091H63.9318ZM63.9318 12V13H64.9318V12H63.9318ZM60.7955 12H59.7955V13H60.7955V12ZM60.7955 8.34091H61.7955V8.08997L61.677 7.86876L60.7955 8.34091ZM56.5227 1.36364H60.0455V-0.636364H56.5227V1.36364ZM59.1442 0.79693L61.4169 5.5242L63.2194 4.65761L60.9467 -0.0696584L59.1442 0.79693ZM62.3182 6.09091H62.4091V4.09091H62.3182V6.09091ZM63.3103 5.5242L65.5831 0.79693L63.7806 -0.0696584L61.5078 4.65761L63.3103 5.5242ZM64.6818 1.36364H68.2045V-0.636364H64.6818V1.36364ZM67.323 -0.108516L63.0503 7.86876L64.8133 8.81306L69.0861 0.835788L67.323 -0.108516ZM62.9318 8.34091V12H64.9318V8.34091H62.9318ZM63.9318 11H60.7955V13H63.9318V11ZM61.7955 12V8.34091H59.7955V12H61.7955ZM61.677 7.86876L57.4042 -0.108516L55.6412 0.835788L59.9139 8.81306L61.677 7.86876ZM80.5526 0.363636H81.5526V-0.636364H80.5526V0.363636ZM80.5526 12V13H81.5526V12H80.5526ZM77.9162 12L77.0922 12.5667L77.3903 13H77.9162V12ZM73.7116 5.88636L74.5356 5.3197L74.2376 4.88636H73.7116V5.88636ZM73.6435 5.88636V4.88636H72.6435V5.88636H73.6435ZM73.6435 12V13H74.6435V12H73.6435ZM70.4844 12H69.4844V13H70.4844V12ZM70.4844 0.363636V-0.636364H69.4844V0.363636H70.4844ZM73.1662 0.363636L73.9935 -0.198167L73.6959 -0.636364H73.1662V0.363636ZM77.3026 6.45455L76.4753 7.01635L76.7729 7.45455H77.3026V6.45455ZM77.3935 6.45455V7.45455H78.3935V6.45455H77.3935ZM77.3935 0.363636V-0.636364H76.3935V0.363636H77.3935ZM79.5526 0.363636V12H81.5526V0.363636H79.5526ZM80.5526 11H77.9162V13H80.5526V11ZM78.7401 11.4333L74.5356 5.3197L72.8877 6.45302L77.0922 12.5667L78.7401 11.4333ZM73.7116 4.88636H73.6435V6.88636H73.7116V4.88636ZM72.6435 5.88636V12H74.6435V5.88636H72.6435ZM73.6435 11H70.4844V13H73.6435V11ZM71.4844 12V0.363636H69.4844V12H71.4844ZM70.4844 1.36364H73.1662V-0.636364H70.4844V1.36364ZM72.3389 0.925439L76.4753 7.01635L78.1298 5.89274L73.9935 -0.198167L72.3389 0.925439ZM77.3026 7.45455H77.3935V5.45455H77.3026V7.45455ZM78.3935 6.45455V0.363636H76.3935V6.45455H78.3935ZM77.3935 1.36364H80.5526V-0.636364H77.3935V1.36364ZM94.1605 4.72727V5.72727H95.2478L95.157 4.6438L94.1605 4.72727ZM90.956 4.72727L89.9596 4.81267L90.038 5.72727H90.956V4.72727ZM90.7741 4.00568L89.8584 4.40734L89.8613 4.41404L89.8643 4.42069L90.7741 4.00568ZM90.3764 3.44886L89.6859 4.17222L89.6943 4.18024L89.7029 4.18806L90.3764 3.44886ZM89.7685 3.08523L89.4255 4.02468L89.4388 4.02932L89.7685 3.08523ZM87.6094 3.34091L87.0353 2.52206L87.0314 2.52488L87.6094 3.34091ZM86.7798 4.44886L85.8493 4.08252L85.8469 4.0889L86.7798 4.44886ZM86.7855 7.97159L85.855 8.33794L85.8586 8.34678L86.7855 7.97159ZM87.6207 9.05114L87.066 9.88321L87.0721 9.88718L87.6207 9.05114ZM89.7173 9.30114L90.0147 10.2559L90.0218 10.2537L90.0289 10.2514L89.7173 9.30114ZM90.3196 8.97727L90.9547 9.7497L90.9547 9.7497L90.3196 8.97727ZM90.7344 8.47159L89.8571 7.99157L89.8539 7.99749L90.7344 8.47159ZM90.956 7.79545L90.9631 6.79548L90.097 6.78934L89.9672 7.64565L90.956 7.79545ZM94.1605 7.81818L95.1576 7.89488L95.2398 6.82581L94.1676 6.81821L94.1605 7.81818ZM93.7457 9.32386L94.6507 9.74934L94.6519 9.74675L93.7457 9.32386ZM92.7287 10.733L93.4296 11.4462L93.4296 11.4462L92.7287 10.733ZM91.1094 11.767L90.7333 10.8405L91.1094 11.767ZM85.9901 11.4716L85.5131 12.3505L85.5148 12.3514L85.9901 11.4716ZM83.9844 9.44886L83.1078 9.93007L83.1093 9.93293L83.9844 9.44886ZM84.0014 2.90909L84.8724 3.40041L84.8733 3.39882L84.0014 2.90909ZM86.0241 0.892045L86.4964 1.77353L86.4994 1.77188L86.0241 0.892045ZM90.8935 0.505681L91.2027 -0.44531V-0.44531L90.8935 0.505681ZM92.5185 1.38636L91.8801 2.15613L91.8839 2.1592L92.5185 1.38636ZM93.6435 2.80114L92.7515 3.25316V3.25317L93.6435 2.80114ZM94.1605 3.72727H90.956V5.72727H94.1605V3.72727ZM91.9523 4.64187C91.921 4.27643 91.8353 3.92253 91.684 3.59068L89.8643 4.42069C89.9099 4.52065 89.9455 4.64781 89.9596 4.81267L91.9523 4.64187ZM91.6899 3.60402C91.5403 3.26283 91.3262 2.96143 91.0499 2.70967L89.7029 4.18806C89.7675 4.24691 89.8186 4.31671 89.8584 4.40734L91.6899 3.60402ZM91.0669 2.72551C90.7874 2.45874 90.4582 2.26687 90.0982 2.14114L89.4388 4.02932C89.556 4.07025 89.6321 4.1208 89.6859 4.17222L91.0669 2.72551ZM90.1114 2.14587C89.744 2.01173 89.354 1.95455 88.956 1.95455V3.95455C89.164 3.95455 89.3157 3.98448 89.4255 4.02458L90.1114 2.14587ZM88.956 1.95455C88.2585 1.95455 87.5998 2.12637 87.0353 2.52207L88.1834 4.15974C88.3538 4.0403 88.5928 3.95455 88.956 3.95455V1.95455ZM87.0314 2.52488C86.4848 2.912 86.0983 3.45016 85.8493 4.08253L87.7103 4.8152C87.8401 4.48545 88.0066 4.28497 88.1874 4.15693L87.0314 2.52488ZM85.8469 4.0889C85.6056 4.71411 85.5014 5.42039 85.5014 6.18182H87.5014C87.5014 5.59476 87.5828 5.14574 87.7128 4.80883L85.8469 4.0889ZM85.5014 6.18182C85.5014 6.97522 85.6059 7.70518 85.855 8.33792L87.716 7.60526C87.5863 7.27588 87.5014 6.81266 87.5014 6.18182H85.5014ZM85.8586 8.34678C86.1134 8.97634 86.5072 9.51061 87.066 9.88319L88.1754 8.21909C88.007 8.10681 87.844 7.92139 87.7125 7.5964L85.8586 8.34678ZM87.0721 9.88718C87.6256 10.2505 88.2618 10.4091 88.9332 10.4091V8.40909C88.5819 8.40909 88.3431 8.32909 88.1694 8.21509L87.0721 9.88718ZM88.9332 10.4091C89.3058 10.4091 89.67 10.3633 90.0147 10.2559L89.4199 8.34638C89.3025 8.38295 89.144 8.40909 88.9332 8.40909V10.4091ZM90.0289 10.2514C90.3659 10.1409 90.6791 9.97634 90.9547 9.7497L89.6845 8.20485C89.6192 8.25851 89.5309 8.30988 89.4058 8.35091L90.0289 10.2514ZM90.9547 9.7497C91.227 9.52584 91.448 9.25549 91.6148 8.94569L89.8539 7.99749C89.8086 8.08163 89.7531 8.1484 89.6845 8.20485L90.9547 9.7497ZM91.6116 8.9516C91.7833 8.63793 91.8911 8.2989 91.9447 7.94526L89.9672 7.64565C89.9451 7.79201 89.9052 7.90373 89.8571 7.99158L91.6116 8.9516ZM90.9489 8.79543L94.1534 8.81816L94.1676 6.81821L90.9631 6.79548L90.9489 8.79543ZM93.1635 7.74149C93.136 8.09818 93.0345 8.48325 92.8396 8.90098L94.6519 9.74675C94.9343 9.14175 95.1092 8.52304 95.1576 7.89488L93.1635 7.74149ZM92.8408 8.89839C92.6573 9.28866 92.3909 9.66281 92.0278 10.0197L93.4296 11.4462C93.9452 10.9395 94.3569 10.3742 94.6507 9.74934L92.8408 8.89839ZM92.0278 10.0197C91.6975 10.3443 91.2727 10.6215 90.7333 10.8405L91.4855 12.6936C92.234 12.3898 92.8887 11.9777 93.4296 11.4462L92.0278 10.0197ZM90.7333 10.8405C90.2325 11.0437 89.6167 11.1591 88.8651 11.1591V13.1591C89.8179 13.1591 90.6984 13.0131 91.4855 12.6936L90.7333 10.8405ZM88.8651 11.1591C87.9446 11.1591 87.1526 10.963 86.4653 10.5918L85.5148 12.3514C86.5245 12.8969 87.6491 13.1591 88.8651 13.1591V11.1591ZM86.467 10.5926C85.7999 10.2307 85.2652 9.69829 84.8594 8.9648L83.1093 9.93293C83.6884 10.9797 84.4908 11.7958 85.5131 12.3505L86.467 10.5926ZM84.861 8.96766C84.4722 8.25939 84.2514 7.34566 84.2514 6.18182H82.2514C82.2514 7.59373 82.5193 8.85803 83.1078 9.93007L84.861 8.96766ZM84.2514 6.18182C84.2514 5.01245 84.4771 4.10126 84.8724 3.40041L83.1304 2.41777C82.5258 3.48965 82.2514 4.76028 82.2514 6.18182H84.2514ZM84.8733 3.39882C85.286 2.66409 85.826 2.13264 86.4964 1.77352L85.5519 0.010565C84.5253 0.56054 83.7168 1.37379 83.1295 2.41936L84.8733 3.39882ZM86.4994 1.77188C87.1898 1.39895 87.9712 1.20455 88.8651 1.20455V-0.795455C87.668 -0.795455 86.5555 -0.531527 85.5489 0.0122054L86.4994 1.77188ZM88.8651 1.20455C89.5085 1.20455 90.0789 1.29235 90.5843 1.45667L91.2027 -0.44531C90.4732 -0.682503 89.6913 -0.795455 88.8651 -0.795455V1.20455ZM90.5843 1.45667C91.0903 1.62122 91.5184 1.85613 91.8801 2.15612L93.1568 0.616605C92.5867 0.143871 91.9315 -0.208342 91.2027 -0.44531L90.5843 1.45667ZM91.8839 2.1592C92.2381 2.45009 92.5273 2.8108 92.7515 3.25316L94.5355 2.34911C94.1915 1.67026 93.7306 1.08779 93.1531 0.613527L91.8839 2.1592ZM92.7515 3.25317C92.969 3.68239 93.1125 4.19599 93.164 4.81075L95.157 4.6438C95.0873 3.81158 94.8861 3.0411 94.5355 2.34911L92.7515 3.25317Z" fill="#18A0FB" mask="url(#path-1-outside-1_29_344)"/>
</svg>
